<?xml version="1.0" standalone="no"?>
<!DOCTYPE svg PUBLIC "-//W3C//DTD SVG 20010904//EN"
 "http://www.w3.org/TR/2001/REC-SVG-20010904/DTD/svg10.dtd">
<svg version="1.0" xmlns="http://www.w3.org/2000/svg"
 width="500.000000pt" height="500.000000pt" viewBox="0 0 500.000000 500.000000"
 preserveAspectRatio="xMidYMid meet">
<metadata>
Created by potrace 1.14, written by Peter Selinger 2001-2017
</metadata>
<g transform="translate(0.000000,500.000000) scale(0.100000,-0.100000)"
fill="#000000" stroke="none">
<path d="M2448 4735 c-2 -2 -37 -6 -79 -9 -81 -6 -184 -27 -264 -54 -27 -9
-52 -17 -55 -17 -66 -17 -273 -133 -363 -204 -91 -71 -230 -228 -298 -336 -29
-46 -99 -181 -101 -192 0 -5 -5 -19 -10 -33 -5 -14 -11 -32 -13 -40 -2 -8 -10
-34 -19 -58 -8 -23 -15 -44 -16 -47 0 -3 0 -6 -1 -7 -3 -12 -19 -101 -25 -143
-6 -43 -7 -285 -1 -320 3 -16 8 -54 12 -82 4 -29 11 -56 16 -59 5 -3 7 -9 4
-14 -3 -4 2 -26 10 -49 8 -23 12 -41 8 -41 -3 0 0 -6 6 -14 7 -8 13 -22 16
-32 2 -11 11 -37 21 -59 10 -22 18 -42 19 -45 3 -17 55 -107 103 -179 199
-300 534 -511 902 -567 85 -12 348 -6 420 11 3 1 19 4 35 8 17 4 40 10 53 12
103 22 231 78 359 155 34 21 68 43 75 49 7 6 40 32 73 59 53 43 151 143 195
198 89 111 207 346 226 449 1 6 7 30 14 55 22 81 32 179 31 320 0 138 -15 238
-57 375 -77 250 -277 522 -496 673 -62 42 -247 144 -268 147 -3 0 -34 10 -70
22 -132 43 -184 53 -320 59 -58 3 -113 6 -122 8 -9 2 -18 2 -20 1z m11 -340
c0 -140 -2 -261 -5 -270 -5 -12 -24 -14 -117 -10 -62 3 -125 7 -142 9 -16 2
-61 7 -100 12 -74 9 -87 10 -95 14 -3 1 -15 3 -27 4 -13 2 -26 5 -29 9 -9 9
61 129 113 195 107 134 228 222 400 291 1 1 2 -114 2 -254z m213 194 c121 -66
177 -117 300 -268 10 -11 15 -21 13 -21 -3 0 3 -10 15 -22 11 -12 20 -28 20
-35 0 -7 4 -13 8 -13 11 0 32 -60 21 -61 -5 -1 -12 -2 -16 -3 -8 -2 -104 -17
-138 -22 -11 -1 -33 -5 -50 -8 -35 -6 -143 -16 -237 -21 l-68 -4 0 265 0 266
30 -7 c17 -4 63 -24 102 -46z m-510 -9 c-98 -71 -210 -206 -279 -335 -37 -71
-35 -70 -188 -24 l-100 31 72 67 c39 36 97 85 130 108 106 77 311 171 397 182
5 0 -10 -13 -32 -29z m698 15 c88 -18 300 -129 392 -205 67 -55 138 -122 138
-130 0 -4 -10 -10 -22 -13 -13 -3 -50 -13 -83 -22 -33 -9 -69 -19 -80 -22 -62
-14 -60 -14 -84 35 -53 108 -153 229 -286 347 -22 20 -25 25 -10 20 11 -4 27
-8 35 -10z m656 -493 c86 -129 159 -302 179 -422 4 -25 9 -54 12 -65 2 -11 6
-48 8 -82 l4 -63 -210 0 -209 0 -1 23 c-1 36 -7 108 -13 172 -6 61 -16 120
-42 237 -3 15 -4 29 -3 30 1 2 -3 13 -9 24 -6 12 -14 36 -17 55 -3 18 -10 38
-14 44 -4 5 -11 20 -14 32 -4 19 0 24 31 33 21 5 71 19 112 31 41 12 80 22 87
23 7 1 15 5 19 8 13 13 30 -4 80 -80z m-1890 52 c87 -28 86 -28 129 -38 17 -4
37 -10 46 -12 13 -4 11 -15 -12 -87 -31 -92 -33 -101 -59 -242 -15 -87 -25
-184 -29 -287 -1 -17 -18 -18 -211 -18 l-210 0 5 73 c4 63 9 96 19 132 2 6 6
28 11 49 4 21 16 61 26 87 9 27 16 49 14 49 -6 0 77 165 112 223 20 31 39 57
44 57 4 0 11 9 14 20 8 25 6 25 101 -6z m1479 -81 c3 -10 6 -19 5 -21 0 -1 7
-16 15 -32 9 -17 14 -30 11 -30 -2 0 3 -21 11 -47 36 -118 61 -276 67 -438 l1
-30 -338 -3 -338 -2 1 280 1 280 32 1 c109 3 236 14 340 30 40 6 88 13 107 16
19 3 37 7 39 9 11 11 40 2 46 -13z m-1118 -6 c5 -3 36 -8 70 -12 35 -4 75 -9
90 -11 16 -2 80 -7 143 -10 63 -3 126 -7 140 -8 l25 -1 2 -277 2 -278 -339 0
-338 0 5 73 c6 92 10 132 13 132 1 0 3 18 5 40 2 22 6 51 9 65 3 14 8 41 12
60 9 51 12 65 14 65 1 0 3 7 5 15 6 25 44 141 50 150 6 9 77 6 92 -3z m-289
-690 c0 -7 3 -55 6 -107 6 -92 7 -109 21 -195 10 -63 42 -197 56 -230 22 -56
20 -74 -9 -81 -15 -3 -52 -13 -82 -21 -30 -8 -59 -16 -65 -17 -5 -2 -30 -9
-54 -16 l-43 -14 -28 34 c-15 18 -38 54 -51 79 -13 25 -27 48 -30 51 -13 11
-89 202 -84 211 4 5 1 9 -4 9 -6 0 -10 3 -9 8 1 4 -4 32 -12 62 -7 30 -14 66
-16 80 -1 14 -3 25 -4 25 -1 0 -3 30 -5 66 l-4 66 208 1 c150 0 208 -3 209
-11z m759 -254 l2 -263 -32 -1 c-86 -3 -232 -15 -232 -19 0 -1 -25 -3 -55 -5
-30 -3 -77 -9 -105 -15 -27 -5 -68 -13 -90 -16 -22 -3 -43 -8 -48 -11 -8 -5
-34 50 -41 90 -2 14 -9 35 -16 46 -6 12 -9 21 -6 21 2 0 0 17 -5 38 -5 20 -12
46 -14 57 -18 72 -38 317 -28 336 1 4 153 6 335 5 l333 -1 2 -262z m754 255
c7 -11 3 -120 -6 -193 -3 -22 -8 -58 -10 -80 -5 -41 -12 -80 -15 -80 -1 0 -3
-15 -6 -34 -2 -19 -9 -40 -15 -48 -6 -7 -9 -13 -5 -13 3 0 0 -16 -8 -35 -8
-19 -13 -35 -10 -35 2 0 -2 -13 -11 -29 -13 -26 -18 -29 -44 -21 -16 4 -32 6
-35 2 -3 -3 -6 -1 -6 4 0 5 -15 9 -33 10 -17 0 -54 4 -82 8 -68 11 -110 14
-245 21 -63 3 -121 8 -127 10 -10 3 -13 64 -13 258 0 140 2 256 5 259 11 11
660 6 666 -4z m503 -43 c-1 -50 -11 -134 -19 -157 -2 -7 -7 -26 -9 -42 -8 -43
-47 -157 -68 -194 -10 -18 -18 -36 -18 -41 0 -12 -76 -141 -103 -174 l-22 -28
-105 35 c-58 20 -112 36 -121 36 -8 0 -23 6 -33 13 -15 11 -16 15 -2 48 8 20
17 47 20 60 3 13 8 35 11 49 10 39 26 113 30 140 2 14 4 25 5 25 2 0 6 48 14
174 4 51 9 97 11 102 3 4 96 7 208 6 l202 -2 -1 -50z m-1255 -827 c0 -189 -3
-270 -11 -274 -7 -4 -14 -2 -16 4 -2 7 -10 12 -18 12 -18 0 -108 42 -112 52
-2 4 -8 8 -13 8 -21 0 -157 110 -204 165 -28 31 -55 62 -60 69 -6 6 -32 46
-57 88 -41 66 -44 77 -30 84 9 4 21 6 25 5 5 -1 25 3 45 8 51 13 142 25 292
37 47 3 86 7 88 9 1 1 18 1 37 1 l34 -1 0 -267z m353 257 c35 -3 74 -8 88 -10
77 -11 117 -18 135 -22 11 -3 26 -5 33 -5 16 -2 16 -2 -7 -47 -54 -104 -143
-213 -253 -309 -38 -32 -228 -139 -228 -128 0 4 -9 2 -19 -4 -20 -10 -20 -4
-20 264 l0 275 104 -4 c57 -2 132 -7 167 -10z m508 -102 c8 -3 20 -7 25 -8 6
-2 25 -9 42 -16 l33 -14 -38 -40 c-21 -22 -59 -57 -83 -77 -24 -21 -52 -44
-61 -53 -10 -8 -20 -15 -23 -15 -3 0 -15 -9 -27 -20 -12 -11 -28 -20 -35 -20
-7 0 -13 -3 -13 -7 0 -16 -169 -95 -270 -128 -30 -10 -65 -21 -77 -26 -35 -13
-27 3 15 31 44 29 51 34 122 102 31 29 74 76 96 103 44 54 114 167 114 183 0
5 7 15 15 22 8 7 12 16 10 21 -5 7 118 -23 155 -38z m-1385 -133 c8 -9 15 -20
15 -23 0 -21 147 -167 224 -224 34 -25 63 -47 65 -49 2 -2 -12 1 -30 7 -19 6
-47 14 -64 19 -61 16 -247 99 -253 112 -2 5 -9 8 -15 8 -19 1 -151 101 -227
173 -81 76 -83 71 50 106 47 13 96 26 110 30 22 7 28 1 67 -67 24 -42 50 -83
58 -92z"/>
<path d="M508 1592 c10 -7 13 -44 10 -166 l-3 -156 61 0 c147 0 230 116 171
240 -28 59 -75 83 -170 87 -52 3 -77 1 -69 -5z m160 -40 c54 -39 79 -135 49
-189 -21 -38 -67 -66 -116 -71 l-47 -4 0 147 0 147 42 -5 c23 -2 56 -14 72
-25z"/>
<path d="M2272 1593 c-6 -2 -9 -10 -5 -16 8 -13 6 -284 -2 -297 -4 -6 7 -10
25 -10 22 0 29 4 24 12 -4 7 -8 80 -8 162 -1 146 -4 161 -34 149z"/>
<path d="M2995 1590 c-11 -5 -14 -9 -7 -9 8 -1 12 -20 12 -63 0 -48 -3 -59
-12 -50 -20 20 -84 14 -113 -11 -35 -29 -46 -104 -21 -141 29 -46 98 -64 132
-35 10 8 14 8 14 0 0 -6 12 -11 26 -11 18 0 23 4 17 13 -4 6 -9 75 -9 152 -2
188 2 173 -39 155z m-21 -141 c25 -19 27 -26 24 -82 -3 -57 -5 -63 -32 -76
-25 -12 -31 -11 -55 6 -52 39 -50 136 2 161 30 15 31 15 61 -9z"/>
<path d="M3650 1595 c0 -3 4 -13 10 -23 5 -9 28 -77 50 -151 21 -73 41 -136
44 -138 2 -2 21 46 41 107 20 61 38 110 40 108 2 -2 18 -48 35 -103 18 -55 35
-104 38 -109 6 -10 15 18 71 201 17 56 37 104 44 106 6 3 -1 6 -16 6 -21 1
-28 -3 -26 -16 3 -20 -48 -193 -61 -206 -4 -5 -11 4 -14 20 -4 17 -19 70 -35
118 l-28 88 -37 -116 c-21 -65 -39 -117 -41 -117 -9 0 -66 203 -61 216 4 10
-3 14 -24 14 -17 0 -30 -2 -30 -5z"/>
<path d="M4068 1583 c12 -22 10 -283 -1 -300 -6 -10 14 -13 92 -13 l101 0 0
28 c-1 23 -2 24 -11 10 -8 -14 -24 -18 -74 -18 l-65 0 0 76 0 77 59 -6 c55 -6
60 -5 58 13 -1 20 -12 26 -21 12 -4 -7 -39 -8 -88 -3 -5 1 -8 28 -8 61 l0 60
58 0 c32 0 63 -5 70 -12 9 -9 12 -7 12 10 0 21 -4 22 -95 22 -88 0 -95 -1 -87
-17z"/>
<path d="M4316 1448 c1 -99 -2 -158 -9 -167 -10 -11 1 -13 67 -9 71 3 80 6
102 31 32 38 32 90 -1 122 -13 14 -29 25 -34 25 -6 0 1 11 14 25 40 39 29 95
-22 112 -16 5 -48 10 -73 12 l-45 2 1 -153z m108 116 c17 -17 17 -17 21 -52 3
-28 -28 -52 -67 -52 -28 0 -28 1 -28 60 0 60 0 60 29 60 16 0 37 -7 45 -16z
m-1 -133 c16 -6 29 -23 36 -44 20 -59 -8 -96 -71 -97 l-38 0 0 75 c0 73 1 75
24 75 14 0 36 -4 49 -9z"/>
<path d="M1083 1475 c-58 -25 -45 -83 25 -105 41 -14 72 -37 72 -55 0 -35
-104 -33 -117 2 -6 14 -7 14 -13 -3 -6 -15 0 -22 34 -35 61 -25 126 -1 126 46
0 26 -22 47 -70 65 -63 24 -78 50 -40 70 14 8 29 7 56 -5 41 -17 47 -16 35 4
-13 21 -75 30 -108 16z"/>
<path d="M1595 1482 c-11 -2 -26 -9 -32 -14 -9 -7 -13 -7 -13 1 0 7 -10 11
-22 9 -14 -2 -22 -9 -19 -18 7 -31 7 -146 -1 -167 -7 -20 -4 -23 20 -23 l27 0
-3 81 c-4 87 3 104 44 112 44 8 66 -21 69 -89 1 -32 -1 -69 -6 -81 -8 -20 -5
-23 19 -23 l27 0 -5 84 c-4 46 -12 91 -19 99 -16 20 -60 34 -86 29z"/>
<path d="M853 1468 c-43 -21 -58 -81 -37 -150 7 -22 80 -57 110 -52 45 8 71
23 76 42 5 19 3 18 -29 -3 -41 -29 -79 -25 -110 11 -42 46 -32 54 63 54 74 0
85 2 80 16 -3 9 -6 22 -6 30 0 8 -11 26 -25 39 -26 27 -81 33 -122 13z m103
-26 c33 -45 27 -52 -47 -52 -78 0 -88 12 -45 55 27 27 71 26 92 -3z"/>
<path d="M1293 1463 c-81 -72 -40 -194 65 -195 53 0 92 17 92 42 l0 20 -20
-20 c-11 -11 -23 -20 -27 -21 -5 0 -17 -2 -27 -4 -29 -6 -74 25 -85 57 l-10
28 84 0 c91 0 99 5 82 53 -17 52 -112 76 -154 40z m110 -21 c9 -8 17 -23 17
-34 0 -16 -9 -18 -70 -18 -62 0 -69 2 -63 18 21 57 71 72 116 34z"/>
<path d="M1777 1428 c14 -29 36 -77 49 -106 13 -30 28 -51 34 -47 5 3 10 10
10 15 0 5 20 50 44 99 39 81 41 91 24 91 -11 0 -17 -3 -15 -7 3 -5 -10 -39
-28 -78 l-32 -70 -27 60 c-15 33 -28 68 -29 78 -1 11 -10 17 -28 17 l-27 0 25
-52z"/>
<path d="M2034 1462 c-74 -59 -52 -171 37 -191 43 -10 98 9 118 41 35 55 17
133 -36 157 -36 16 -95 13 -119 -7z m105 -11 c11 -6 25 -29 32 -50 30 -100
-89 -163 -136 -72 -23 45 -19 79 14 111 29 30 50 32 90 11z"/>
<path d="M2396 1403 c20 -43 41 -90 47 -105 6 -16 14 -28 17 -28 3 0 28 47 55
105 49 102 50 105 27 105 -14 0 -21 -4 -17 -11 7 -10 -44 -138 -55 -139 -8 0
-55 122 -54 138 1 7 -10 12 -27 12 l-28 0 35 -77z"/>
<path d="M2629 1451 c-45 -45 -38 -132 14 -166 51 -33 157 -13 157 29 -1 19
-2 20 -14 4 -34 -46 -107 -42 -137 6 -10 17 -19 34 -19 39 0 4 38 7 85 7 80 0
85 1 85 21 0 83 -109 121 -171 60z m124 -13 c33 -39 23 -48 -53 -48 -38 0 -70
2 -70 5 0 2 5 15 11 29 22 47 77 54 112 14z"/>
<path d="M3142 1464 c-86 -60 -47 -194 57 -196 105 -1 154 121 76 190 -31 27
-99 30 -133 6z m116 -30 c38 -43 20 -134 -29 -147 -80 -21 -136 97 -75 158 30
30 71 26 104 -11z"/>
<path d="M3372 1473 c-6 -2 -9 -10 -5 -16 11 -17 11 -149 1 -169 -7 -15 -4
-18 19 -18 l28 0 -3 81 c-4 89 8 110 54 101 17 -3 24 0 24 12 0 18 -31 21 -61
6 -13 -7 -19 -7 -19 0 0 10 -16 12 -38 3z"/>
<path d="M1285 942 c-11 -12 -4 -17 25 -18 17 -1 30 2 30 6 0 9 -47 19 -55 12z"/>
<path d="M269 893 c-1 -19 -1 -123 0 -135 1 -5 24 -8 52 -8 31 0 48 4 44 10
-3 6 -22 10 -41 10 -30 0 -34 3 -34 25 0 21 5 25 30 25 17 0 30 5 30 10 0 6
-13 10 -30 10 -25 0 -30 4 -30 25 0 22 4 25 34 25 19 0 38 5 41 10 4 6 -13 10
-44 10 -41 0 -51 -3 -52 -17z"/>
<path d="M473 903 c-7 -2 -13 -18 -13 -34 0 -25 6 -33 36 -45 49 -20 43 -49
-9 -48 -38 1 -49 -9 -21 -20 75 -29 120 51 47 83 -43 19 -46 53 -5 51 41 -3
49 -1 32 10 -16 10 -47 12 -67 3z"/>
<path d="M630 900 c0 -5 11 -10 25 -10 24 0 25 -2 25 -70 0 -40 4 -70 10 -70
6 0 10 30 10 70 0 68 1 70 25 70 14 0 25 5 25 10 0 6 -27 10 -60 10 -33 0 -60
-4 -60 -10z"/>
<path d="M840 830 l0 -80 50 0 c58 0 68 17 13 22 -31 2 -39 7 -41 26 -3 17 2
22 20 22 13 0 30 5 38 10 11 7 6 10 -20 10 -31 0 -36 3 -38 25 -2 23 2 25 38
25 22 0 40 5 40 10 0 6 -22 10 -50 10 l-50 0 0 -80z"/>
<path d="M1021 904 c2 -5 17 -42 32 -82 16 -39 34 -72 40 -72 7 0 26 36 44 80
22 56 27 80 18 80 -7 0 -15 -8 -18 -17 -18 -58 -35 -94 -43 -92 -5 1 -18 24
-29 52 -12 28 -27 53 -34 55 -7 2 -12 1 -10 -4z"/>
<path d="M1291 888 c-5 -13 -19 -47 -30 -77 -12 -29 -19 -56 -16 -60 6 -5 21
12 27 32 2 4 20 9 40 10 31 3 38 0 43 -20 5 -22 25 -33 25 -15 0 21 -57 146
-68 150 -7 2 -16 -7 -21 -20z m33 -76 c-35 -8 -41 2 -26 38 l15 35 12 -35 c10
-29 10 -36 -1 -38z"/>
<path d="M1489 891 c-18 -14 -24 -29 -24 -61 0 -32 6 -47 24 -61 35 -28 85
-25 110 7 61 78 -34 176 -110 115z m101 -33 c13 -25 13 -31 0 -55 -19 -33 -69
-43 -90 -18 -16 19 -16 71 1 91 20 24 71 14 89 -18z"/>
<path d="M1850 897 c-43 -22 -43 -114 0 -137 46 -25 112 -4 106 33 -3 12 -5
25 -5 30 -1 8 -41 10 -41 1 0 -3 7 -12 16 -21 19 -20 5 -35 -32 -35 -32 0 -54
25 -54 63 0 42 26 62 72 56 38 -5 52 5 22 17 -25 9 -57 7 -84 -7z"/>
<path d="M2094 893 c-4 -10 -15 -36 -24 -58 -26 -60 -33 -85 -21 -85 5 0 12 9
16 19 10 34 80 34 90 0 6 -18 25 -27 25 -11 0 19 -58 146 -68 150 -7 2 -15 -5
-18 -15z m35 -53 c10 -29 9 -30 -19 -30 -27 0 -28 1 -17 30 6 17 14 30 18 30
4 0 12 -13 18 -30z"/>
<path d="M2270 830 l0 -80 36 0 c19 0 44 5 55 10 24 13 25 56 2 69 -10 6 -13
11 -7 11 19 0 24 39 7 55 -8 8 -32 15 -54 15 l-39 0 0 -80z m83 46 c7 -19 -12
-36 -40 -36 -18 0 -23 6 -23 25 0 21 5 25 29 25 16 0 31 -6 34 -14z m2 -81 c0
-15 -8 -21 -32 -23 -31 -3 -33 -1 -33 26 0 28 2 29 33 23 23 -5 32 -12 32 -26z"/>
<path d="M2480 829 c0 -60 3 -80 13 -76 6 2 11 15 9 29 -6 48 30 40 58 -13 6
-10 18 -19 26 -19 11 0 9 8 -11 34 -16 21 -22 37 -16 41 6 3 16 15 21 25 15
28 -20 60 -65 60 l-35 0 0 -81z m78 34 c2 -14 -3 -23 -17 -28 -28 -9 -41 1
-39 31 2 20 7 24 28 22 17 -2 26 -10 28 -25z"/>
<path d="M2697 903 c-10 -17 -3 -153 8 -153 7 0 11 27 10 80 0 72 -5 94 -18
73z"/>
<path d="M2824 830 l-1 -80 49 0 c26 0 48 5 48 10 0 6 -17 10 -37 10 -34 0
-38 3 -38 25 0 22 5 25 33 25 17 0 32 5 32 10 0 6 -13 10 -28 10 -35 0 -41 6
-35 31 4 14 14 19 39 19 19 0 34 5 34 10 0 6 -21 10 -48 10 l-47 0 -1 -80z"/>
<path d="M3020 830 l0 -80 45 0 c25 0 45 5 45 10 0 6 -16 10 -35 10 l-35 0 0
70 c0 40 -4 70 -10 70 -6 0 -10 -33 -10 -80z"/>
<path d="M3322 887 c-48 -51 -13 -137 54 -137 57 1 92 54 73 110 -19 54 -88
69 -127 27z m98 -16 c25 -48 1 -101 -45 -101 -49 0 -73 63 -38 102 22 24 69
24 83 -1z"/>
<path d="M3550 830 l0 -80 45 0 c25 0 45 5 45 10 0 6 -15 10 -34 10 l-34 0 2
70 c1 50 -3 70 -11 70 -9 0 -13 -23 -13 -80z"/>
<path d="M3738 903 c-4 -7 -3 -82 1 -135 0 -10 5 -18 11 -18 6 0 9 32 8 80 -1
70 -9 97 -20 73z"/>
<path d="M3850 902 c0 -21 60 -147 70 -147 6 0 25 31 41 68 31 74 34 87 20 87
-5 0 -20 -27 -33 -60 -12 -33 -25 -60 -28 -60 -3 0 -16 27 -28 60 -13 33 -28
60 -33 60 -5 0 -9 -4 -9 -8z"/>
<path d="M4081 830 l1 -80 49 0 c27 0 49 5 49 10 0 6 -17 10 -38 10 -30 0 -39
4 -39 18 0 25 15 41 36 35 10 -3 22 0 25 6 5 7 -5 11 -27 11 -30 0 -34 3 -34
25 0 22 4 25 38 25 22 0 39 5 39 10 0 6 -23 10 -50 10 l-50 0 1 -80z"/>
<path d="M4280 830 c0 -47 4 -80 10 -80 11 0 12 1 12 75 0 80 -1 85 -12 85 -6
0 -10 -33 -10 -80z"/>
<path d="M4414 830 c0 -58 4 -80 13 -80 8 0 11 11 9 30 -2 17 0 33 5 35 8 6
59 -44 59 -57 0 -5 7 -8 16 -8 13 0 12 6 -8 33 -24 31 -24 32 -6 51 12 13 16
27 12 40 -9 28 -22 36 -64 36 l-36 0 0 -80z m74 47 c14 -16 0 -40 -24 -43 -23
-3 -33 12 -27 37 6 22 35 25 51 6z"/>
<path d="M4655 876 c-8 -20 -22 -52 -30 -72 -8 -20 -15 -40 -15 -45 0 -17 19
-9 25 10 4 13 17 20 41 23 30 4 37 1 45 -19 5 -13 13 -23 19 -23 13 0 14 -6
-19 80 -15 41 -33 76 -40 78 -6 2 -18 -12 -26 -32z m43 -38 c11 -27 10 -28
-17 -28 -29 0 -29 1 -18 35 11 38 16 37 35 -7z"/>
</g>
</svg>
